{"title":"The Lady Vanishes 1938 720p BRRip x264 MP4 AAC-CC","uid":9678066,"size":2014815679,"categoryP":"video","categoryS":"hd___movies","magnet":"?xt=urn:btih:0b9def76d5f28c0de56cb421cd2e57177ee5dcfe&amp;dn=The+Lady+Vanishes+1938+720p+BRRip+x264+MP4+AAC-CC&amp;tr=udp%3A%2F%2Ftracker.openbittorrent.com%3A80&amp;tr=udp%3A%2F%2Fopen.demonii.com%3A1337&amp;tr=udp%3A%2F%2Ftracker.coppersurfer.tk%3A6969&amp;tr=udp%3A%2F%2Fexodus.desync.com%3A6969","seeders":1,"leechers":1,"uploader":"Caveman44","files":29,"time":1393602781,"description":" &lt;a href=&quot;http://www.imdb.com/title/tt0030341&quot; rel=&quot;nofollow&quot; target=&quot;_NEW&quot;&gt;http://www.imdb.com/title/tt0030341&lt;/a&gt;\n\nSource: The.Lady.Vanishes.1938.PROPER.720p.BluRay.X264-AMIABLE Thanks!\n\nSubs: English.\n\nSample and Screens included.\n\nGeneral\nComplete name : The Lady Vanishes 1938 720p BRRip x264 MP4 AAC-CC.mp4\nFormat : MPEG-4\nFormat profile : Base Media\nCodec ID : isom\nFile size : 1.86 GiB\nDuration : 1h 36mn\nOverall bit rate mode : Variable\nOverall bit rate : 2 760 Kbps\nEncoded date : UTC 2014-02-02 17:08:04\nTagged date : UTC 2014-02-02 17:08:04\nWriting application : Yamb 2.1.0.0\n\nVideo\nID : 1\nFormat : AVC\nFormat/Info : Advanced Video Codec\nFormat profile : &lt;a class=&quot;__cf_email__&quot; href=&quot;/cdn-cgi/l/email-protection&quot; data-cfemail=&quot;642c0d030c2428504a55&quot;&gt;[email&amp;#160;protected]&lt;/a&gt;&lt;script cf-hash='f9e31' type=&quot;text/javascript&quot;&gt;\n/* &lt;![CDATA[ */!function(){try{var t=&quot;currentScript&quot;in document?document.currentScript:function(){for(var t=document.getElementsByTagName(&quot;script&quot;),e=t.length;e--;)if(t[e].getAttribute(&quot;cf-hash&quot;))return t[e]}();if(t&amp;&amp;t.previousSibling){var e,r,n,i,c=t.previousSibling,a=c.getAttribute(&quot;data-cfemail&quot;);if(a){for(e=&quot;&quot;,r=parseInt(a.substr(0,2),16),n=2;a.length-n;n+=2)i=parseInt(a.substr(n,2),16)^r,e+=String.fromCharCode(i);e=document.createTextNode(e),c.parentNode.replaceChild(e,c)}}}catch(u){}}();/* ]]&gt; */&lt;/script&gt;\nFormat settings, CABAC : Yes\nFormat settings, ReFrames : 5 frames\nCodec ID : avc1\nCodec ID/Info : Advanced Video Coding\nDuration : 1h 36mn\nBit rate : 2 636 Kbps\nMaximum bit rate : 11.8 Mbps\nWidth : 960 pixels\nHeight : 720 pixels\nDisplay aspect ratio : 4:3\nFrame rate mode : Variable\nFrame rate : 23.976 fps\nMinimum frame rate : 23.256 fps\nMaximum frame rate : 25.000 fps\nColor space : YUV\nChroma subsampling : 4:2:0\nBit depth : 8 bits\nScan type : Progressive\nBits/(Pixel*Frame) : 0.159\nStream size : 1.77 GiB (95%)\nWriting library : x264 core 112\nEncoding settings : cabac=1 / ref=5 / deblock=1:0:0 / analyse=0x3:0x113 / me=hex / subme=7 / psy=1 / psy_rd=1.00:0.00 / mixed_ref=1 / me_range=16 / chroma_me=1 / trellis=1 / 8x8dct=1 / cqm=0 / deadzone=21,11 / fast_pskip=1 / chroma_qp_offset=-2 / threads=3 / sliced_threads=0 / nr=0 / decimate=1 / interlaced=0 / constrained_intra=0 / bframes=5 / b_pyramid=2 / b_adapt=2 / b_bias=0 / direct=1 / weightb=1 / open_gop=0 / weightp=2 / keyint=240 / keyint_min=23 / scenecut=40 / intra_refresh=0 / rc_lookahead=50 / rc=abr / mbtree=1 / bitrate=2636 / ratetol=1.0 / qcomp=0.60 / qpmin=3 / qpmax=51 / qpstep=4 / ip_ratio=1.40 / aq=1:1.00\nEncoded date : UTC 2014-02-02 21:14:05\nTagged date : UTC 2014-02-02 17:10:57\nColor primaries : BT.709\nTransfer characteristics : BT.709\nMatrix coefficients : BT.709\n\nAudio\nID : 2\nFormat : AAC\nFormat/Info : Advanced Audio Codec\nFormat profile : LC\nCodec ID : 40\nDuration : 1h 36mn\nBit rate mode : Variable\nBit rate : 128 Kbps\nMaximum bit rate : 149 Kbps\nChannel(s) : 1 channel\nChannel positions : Front: C\nSampling rate : 48.0 KHz\nCompression mode : Lossy\nDelay relative to video : 83ms\nStream size : 88.4 MiB (5%)\nLanguage : English\nEncoded date : UTC 2014-02-02 17:10:27\nTagged date : UTC 2014-02-02 17:10:57\n\nEnjoy...\n\nRequested by varuneric\n\nComing soon: Bridge to Terabithia, Lifeboat, The 39 Steps, High and Low and more..","torrent":{"xt":"urn:btih:0b9def76d5f28c0de56cb421cd2e57177ee5dcfe","amp;dn":"The+Lady+Vanishes+1938+720p+BRRip+x264+MP4+AAC-CC","amp;tr":["udp%3A%2F%2Ftracker.openbittorrent.com%3A80","udp%3A%2F%2Fopen.demonii.com%3A1337","udp%3A%2F%2Ftracker.coppersurfer.tk%3A6969","udp%3A%2F%2Fexodus.desync.com%3A6969"],"infoHash":"0b9def76d5f28c0de56cb421cd2e57177ee5dcfe","infoHashBuffer":{"type":"Buffer","data":[11,157,239,118,213,242,140,13,229,108,180,33,205,46,87,23,126,229,220,254]},"announce":[],"urlList":[]}}